{"title":"Miranda_Lambert_Academy_Of_Country_Music_Awards_720p_20110403_TT","uid":6293168,"size":107627365,"categoryP":"video","categoryS":"hd___tv_shows","magnet":"?xt=urn:btih:15a091c0d88d0627e57b766a72d4affd3bf4b40c&amp;dn=Miranda_Lambert_Academy_Of_Country_Music_Awards_720p_20110403_TT&amp;tr=udp%3A%2F%2Ftracker.openbittorrent.com%3A80&amp;tr=udp%3A%2F%2Fopen.demonii.com%3A1337&amp;tr=udp%3A%2F%2Ftracker.coppersurfer.tk%3A6969&amp;tr=udp%3A%2F%2Fexodus.desync.com%3A6969","seeders":0,"leechers":1,"uploader":"thetorrentlord","files":3,"time":1301900798,"description":"This includes just the song and an MP3. Enjoy and please share.\t\t\t\t\t\t\t\t\t\t\t\t\t\t\t\t\t\t\t\t\t\t\t\t\t\t\t\t\t************************************************************************************************************************************************************************************************************\t\t\t\t\t\t\t\t\t\t\t\t\t\t\t\t\t\t\t\t\t\t\t\t\t\t\t\t\t\t\t\tMiranda_Lambert_Academy_Of_Country_Music_Awards_720p_20110403_TTL.avi\nFormat                           : AVI\nFormat/Info                      : Audio Video Interleave\nFile size                        : 96.0 MiB\nDuration                         : 5mn 50s\nOverall bit rate                 : 2 297 Kbps\nMovie name                       : Miranda_Lambert_Academy_Of_Country_Music_Awards_720p_20110403_TTL.mpg\nDirector                         : created.with.SUPER(C).v2010.bld.37\nWriting application              : SUPER(C)   \n\nVideo\nID                               : 0\nFormat                           : MPEG-4 Visual\nFormat profile                   : Simple@L3\nFormat settings, BVOP            : No\nFormat settings, QPel            : No\nFormat settings, GMC             : No warppoints\nFormat settings, Matrix          : Default (H.263)\nCodec ID                         : XVID\nCodec ID/Hint                    : XviD\nDuration                         : 2mn 55s\nBit rate                         : 4 471 Kbps\nWidth                            : 1 280 pixels\nHeight                           : 720 pixels\nDisplay aspect ratio             : 16:9\nFrame rate                       : 29.970 fps\nColor space                      : YUV\nChroma subsampling               : 4:2:0\nBit depth                        : 8 bits\nScan type                        : Progressive\nBits/(Pixel*Frame)               : 0.162\nStream size                      : 93.4 MiB (97%)\nWriting library                  : XviD 1.1.2 (UTC 2006-11-01)\n\nAudio\nID                               : 1\nFormat                           : MPEG Audio\nFormat version                   : Version 2\nFormat profile                   : Layer 3\nMode                             : Joint stereo\nMode extension                   : MS Stereo\nCodec ID                         : 55\nCodec ID/Hint                    : MP3\nDuration                         : 5mn 50s\nBit rate mode                    : Constant\nBit rate                         : 112 Kbps\nChannel(s)                       : 2 channels\nSampling rate                    : 22.05 KHz\nStream size                      : 2.34 MiB (2%)\nAlignment                        : Aligned on interleaves\nInterleave, duration             : 26 ms (0.78 video frame)\nWriting library                  : LAME3.98\n\n\n\n","torrent":{"xt":"urn:btih:15a091c0d88d0627e57b766a72d4affd3bf4b40c","amp;dn":"Miranda_Lambert_Academy_Of_Country_Music_Awards_720p_20110403_TT","amp;tr":["udp%3A%2F%2Ftracker.openbittorrent.com%3A80","udp%3A%2F%2Fopen.demonii.com%3A1337","udp%3A%2F%2Ftracker.coppersurfer.tk%3A6969","udp%3A%2F%2Fexodus.desync.com%3A6969"],"infoHash":"15a091c0d88d0627e57b766a72d4affd3bf4b40c","infoHashBuffer":{"type":"Buffer","data":[21,160,145,192,216,141,6,39,229,123,118,106,114,212,175,253,59,244,180,12]},"announce":[],"urlList":[]}}